D:\school\WTK\thesis\model\3dpredictsim\Results\batch_windlass\Pog_s1_tmt_bCst_d00_k800_WL10_ig24_act_TTC_GRF.mot
nRows=20
nColumns=19

name D:\school\WTK\thesis\model\3dpredictsim\Results\batch_windlass\Pog_s1_tmt_bCst_d00_k800_WL10_ig24_act_TTC_GRF.mot
datacolumns 19
datarows 20
range 0.0000000000 0.2343828275
endheader
time 	ground_force_vx	ground_force_vy	ground_force_vz	ground_force_px	ground_force_py	ground_force_pz	1_ground_force_vx	1_ground_force_vy	1_ground_force_vz	1_ground_force_px	1_ground_force_py	1_ground_force_pz	ground_torque_x	ground_torque_y	ground_torque_z	1_ground_torque_x	1_ground_torque_y	1_ground_torque_z
        0.0000000000	      -56.3335398601	       43.0226196675	        4.8486049549	        0.1813403752	        0.0000000000	        0.0708727982	      102.5553778858	      381.0380843307	        3.8637997060	       -0.3891753023	        0.0000000000	       -0.0367085649	        0.0000000000	        0.0000000000	        0.0000000000	        0.0000000000	        0.0000000000	        0.0000000000	
        0.0123359383	     -171.7354282310	      165.7987075040	       12.1852451375	        0.1992098884	        0.0000000000	        0.0712194975	       62.2754181109	      269.1628815298	       -8.9325166989	       -0.3769538743	        0.0000000000	       -0.0325556691	        0.0000000000	        0.0000000000	        0.0000000000	        0.0000000000	        0.0000000000	        0.0000000000	
        0.0246718766	     -110.1131391265	      486.8620053540	      -13.0033326138	        0.2132343432	        0.0000000000	        0.0698927458	       43.6354003485	      218.8185242413	      -19.3720501740	       -0.3725747040	        0.0000000000	       -0.0311474278	        0.0000000000	        0.0000000000	        0.0000000000	        0.0000000000	        0.0000000000	        0.0000000000	
        0.0370078149	     -182.2563419800	      858.9791706904	      -24.2782546999	        0.2293777548	        0.0000000000	        0.0667894867	       36.9651763392	      175.1536305017	      -23.6999048709	       -0.3725274391	        0.0000000000	       -0.0314630195	        0.0000000000	        0.0000000000	        0.0000000000	        0.0000000000	        0.0000000000	        0.0000000000	
        0.0493437532	     -198.6087740315	      965.5985176642	      -25.2250420863	        0.2356968733	        0.0000000000	        0.0647663150	       22.0570090254	      115.4425496195	      -23.5326952845	       -0.3726981154	        0.0000000000	       -0.0318241778	        0.0000000000	        0.0000000000	        0.0000000000	        0.0000000000	        0.0000000000	        0.0000000000	
        0.0616796915	     -181.7191249164	      907.2713570056	      -23.1436174546	        0.2392426065	        0.0000000000	        0.0636002873	       -1.7187758120	       42.6210191950	      -11.5431209626	       -0.3744875211	        0.0000000000	       -0.0318098845	        0.0000000000	        0.0000000000	        0.0000000000	        0.0000000000	        0.0000000000	        0.0000000000	
        0.0740156297	     -151.1754217739	      819.2021667630	      -20.3182541449	        0.2422731008	        0.0000000000	        0.0629354910	       -2.4542043815	        2.3505433001	        0.0466978992	        0.0000000000	        0.0000000000	        0.0000000000	        0.0000000000	        0.0000000000	        0.0000000000	        0.0000000000	        0.0000000000	        0.0000000000	
        0.0863515680	     -134.5273278711	      755.2309987859	      -18.4170350304	        0.2455179739	        0.0000000000	        0.0624380846	        0.1179519051	       -0.0981690549	       -0.0082659488	        0.0000000000	        0.0000000000	        0.0000000000	        0.0000000000	        0.0000000000	        0.0000000000	        0.0000000000	        0.0000000000	        0.0000000000	
        0.0986875063	     -120.3474895919	      723.1390621930	      -17.1884413276	        0.2479179816	        0.0000000000	        0.0621863470	       -1.5318571291	        1.0986140006	        0.1344789963	        0.0000000000	        0.0000000000	        0.0000000000	        0.0000000000	        0.0000000000	        0.0000000000	        0.0000000000	        0.0000000000	        0.0000000000	
        0.1110234446	     -103.7819377543	      698.8651242310	      -17.1302643911	        0.2499846520	        0.0000000000	        0.0620622620	        0.2007706578	       -0.1339653756	       -0.0149780612	        0.0000000000	        0.0000000000	        0.0000000000	        0.0000000000	        0.0000000000	        0.0000000000	        0.0000000000	        0.0000000000	        0.0000000000	
        0.1233593829	      -88.8072805968	      675.5587377925	      -17.2581411307	        0.2524180268	        0.0000000000	        0.0619490565	        0.0529232240	       -0.0332980351	       -0.0031878244	        0.0000000000	        0.0000000000	        0.0000000000	        0.0000000000	        0.0000000000	        0.0000000000	        0.0000000000	        0.0000000000	        0.0000000000	
        0.1356953212	      -74.4710783582	      658.3176360983	      -17.7885340676	        0.2564921259	        0.0000000000	        0.0616261234	        0.0078354146	       -0.0047514215	       -0.0003480952	        0.0000000000	        0.0000000000	        0.0000000000	        0.0000000000	        0.0000000000	        0.0000000000	        0.0000000000	        0.0000000000	        0.0000000000	
        0.1480312595	      -64.4704299051	      645.3038949874	      -18.6539269082	        0.2618374149	        0.0000000000	        0.0610631751	       -0.0059401708	        0.0035194034	        0.0001149160	        0.0000000000	        0.0000000000	        0.0000000000	        0.0000000000	        0.0000000000	        0.0000000000	        0.0000000000	        0.0000000000	        0.0000000000	
        0.1603671978	      -56.8149352929	      634.6189838868	      -19.6969267173	        0.2679357354	        0.0000000000	        0.0603301793	       -0.0099024016	        0.0055690446	        0.0001939603	        0.0000000000	        0.0000000000	        0.0000000000	        0.0000000000	        0.0000000000	        0.0000000000	        0.0000000000	        0.0000000000	        0.0000000000	
        0.1727031361	      -50.7906938134	      625.0715673569	      -20.5253069419	        0.2743963092	        0.0000000000	        0.0594864009	       -0.0053942126	        0.0028304063	        0.0001652548	        0.0000000000	        0.0000000000	        0.0000000000	        0.0000000000	        0.0000000000	        0.0000000000	        0.0000000000	        0.0000000000	        0.0000000000	
        0.1850390744	      -45.4481682206	      616.3222003712	      -20.4445603935	        0.2807732918	        0.0000000000	        0.0586198770	       -0.0032785321	        0.0016025974	        0.0001425222	        0.0000000000	        0.0000000000	        0.0000000000	        0.0000000000	        0.0000000000	        0.0000000000	        0.0000000000	        0.0000000000	        0.0000000000	
        0.1973750126	      -40.3605025314	      608.0122655916	      -19.8546564383	        0.2869558397	        0.0000000000	        0.0577510331	       -0.0026980764	        0.0012414492	        0.0001389934	        0.0000000000	        0.0000000000	        0.0000000000	        0.0000000000	        0.0000000000	        0.0000000000	        0.0000000000	        0.0000000000	        0.0000000000	
        0.2097109509	      -35.6230411698	      598.9696055736	      -19.1027356958	        0.2928844384	        0.0000000000	        0.0568888780	       -0.0030490254	        0.0013391389	        0.0001638593	        0.0000000000	        0.0000000000	        0.0000000000	        0.0000000000	        0.0000000000	        0.0000000000	        0.0000000000	        0.0000000000	        0.0000000000	
        0.2220468892	      -32.0593393095	      590.5378359001	      -18.5324157859	        0.2985773792	        0.0000000000	        0.0560302131	       -0.0045287103	        0.0019211597	        0.0002356505	        0.0000000000	        0.0000000000	        0.0000000000	        0.0000000000	        0.0000000000	        0.0000000000	        0.0000000000	        0.0000000000	        0.0000000000	
        0.2343828275	      -29.1022690858	      583.4872359004	      -18.2722928727	        0.3039660072	        0.0000000000	        0.0551930741	       -0.0082337036	        0.0034027159	        0.0003970371	        0.0000000000	        0.0000000000	        0.0000000000	        0.0000000000	        0.0000000000	        0.0000000000	        0.0000000000	        0.0000000000	        0.0000000000	
